<mxfile host="app.diagrams.net" agent="Mozilla/5.0 (Macintosh; Intel Mac OS X 10_15_7) AppleWebKit/537.36 (KHTML, like Gecko) Chrome/128.0.0.0 Safari/537.36 OPR/114.0.0.0" version="25.0.3">
  <diagram name="Page-1" id="ziHF12HlcpeNJH6v-BD0">
    <mxGraphModel dx="1074" dy="676" grid="1" gridSize="10" guides="1" tooltips="1" connect="1" arrows="1" fold="1" page="1" pageScale="1" pageWidth="827" pageHeight="1169" math="0" shadow="0">
      <root>
        <mxCell id="0" />
        <mxCell id="1" parent="0" />
        <mxCell id="rXCyDEOSm-_-FBjUmAnm-1" value="RoadtripRental" style="swimlane;fontStyle=1;align=center;verticalAlign=top;childLayout=stackLayout;horizontal=1;startSize=26;horizontalStack=0;resizeParent=1;resizeParentMax=0;resizeLast=0;collapsible=1;marginBottom=0;whiteSpace=wrap;html=1;" vertex="1" parent="1">
          <mxGeometry x="342" y="15" width="210" height="220" as="geometry" />
        </mxCell>
        <mxCell id="rXCyDEOSm-_-FBjUmAnm-2" value="- ArrayList&amp;lt;Vehicles&amp;gt; : Vehicles&lt;div&gt;- ArrayList&amp;lt;Employee&amp;gt; : Employees&lt;br&gt;&lt;div&gt;- ArrayList&amp;lt;Reservation&amp;gt; : Reservations&lt;br&gt;&lt;/div&gt;&lt;/div&gt;" style="text;strokeColor=none;fillColor=none;align=left;verticalAlign=top;spacingLeft=4;spacingRight=4;overflow=hidden;rotatable=0;points=[[0,0.5],[1,0.5]];portConstraint=eastwest;whiteSpace=wrap;html=1;" vertex="1" parent="rXCyDEOSm-_-FBjUmAnm-1">
          <mxGeometry y="26" width="210" height="94" as="geometry" />
        </mxCell>
        <mxCell id="rXCyDEOSm-_-FBjUmAnm-3" value="" style="line;strokeWidth=1;fillColor=none;align=left;verticalAlign=middle;spacingTop=-1;spacingLeft=3;spacingRight=3;rotatable=0;labelPosition=right;points=[];portConstraint=eastwest;strokeColor=inherit;" vertex="1" parent="rXCyDEOSm-_-FBjUmAnm-1">
          <mxGeometry y="120" width="210" height="8" as="geometry" />
        </mxCell>
        <mxCell id="rXCyDEOSm-_-FBjUmAnm-4" value="+ RoadTripRental(- ArrayList&amp;lt;Vehicles&amp;gt; : V)&lt;div&gt;+ addVehicle()&lt;/div&gt;&lt;div&gt;+ addEmployee()&lt;/div&gt;&lt;div&gt;+ CheckAviability (v : Vehicle, d : date) : bool&lt;/div&gt;" style="text;strokeColor=none;fillColor=none;align=left;verticalAlign=top;spacingLeft=4;spacingRight=4;overflow=hidden;rotatable=0;points=[[0,0.5],[1,0.5]];portConstraint=eastwest;whiteSpace=wrap;html=1;" vertex="1" parent="rXCyDEOSm-_-FBjUmAnm-1">
          <mxGeometry y="128" width="210" height="92" as="geometry" />
        </mxCell>
        <mxCell id="rXCyDEOSm-_-FBjUmAnm-5" value="Vehicles" style="swimlane;fontStyle=1;align=center;verticalAlign=top;childLayout=stackLayout;horizontal=1;startSize=26;horizontalStack=0;resizeParent=1;resizeParentMax=0;resizeLast=0;collapsible=1;marginBottom=0;whiteSpace=wrap;html=1;" vertex="1" parent="1">
          <mxGeometry x="334" y="260" width="226" height="210" as="geometry" />
        </mxCell>
        <mxCell id="rXCyDEOSm-_-FBjUmAnm-6" value="# identifier : int&lt;div&gt;# model : String&lt;/div&gt;&lt;div&gt;# RentalPriceDay : int&lt;/div&gt;&lt;div&gt;# SeatingCapacity : int&lt;/div&gt;" style="text;strokeColor=none;fillColor=none;align=left;verticalAlign=top;spacingLeft=4;spacingRight=4;overflow=hidden;rotatable=0;points=[[0,0.5],[1,0.5]];portConstraint=eastwest;whiteSpace=wrap;html=1;" vertex="1" parent="rXCyDEOSm-_-FBjUmAnm-5">
          <mxGeometry y="26" width="226" height="64" as="geometry" />
        </mxCell>
        <mxCell id="rXCyDEOSm-_-FBjUmAnm-7" value="" style="line;strokeWidth=1;fillColor=none;align=left;verticalAlign=middle;spacingTop=-1;spacingLeft=3;spacingRight=3;rotatable=0;labelPosition=right;points=[];portConstraint=eastwest;strokeColor=inherit;" vertex="1" parent="rXCyDEOSm-_-FBjUmAnm-5">
          <mxGeometry y="90" width="226" height="8" as="geometry" />
        </mxCell>
        <mxCell id="rXCyDEOSm-_-FBjUmAnm-8" value="+ Vehicles (i : int, m : String, Rpd : i, sc : int)&lt;div&gt;+ GetID() : int&lt;/div&gt;&lt;div&gt;+ GetModel() : String&lt;/div&gt;&lt;div&gt;+ GetPrice() : int&lt;/div&gt;&lt;div&gt;+ GetCapacity(): int&lt;/div&gt;&lt;div&gt;+ IsAviable (date : Date) : bool&lt;/div&gt;" style="text;strokeColor=none;fillColor=none;align=left;verticalAlign=top;spacingLeft=4;spacingRight=4;overflow=hidden;rotatable=0;points=[[0,0.5],[1,0.5]];portConstraint=eastwest;whiteSpace=wrap;html=1;" vertex="1" parent="rXCyDEOSm-_-FBjUmAnm-5">
          <mxGeometry y="98" width="226" height="112" as="geometry" />
        </mxCell>
        <mxCell id="rXCyDEOSm-_-FBjUmAnm-9" value="Cars" style="swimlane;fontStyle=1;align=center;verticalAlign=top;childLayout=stackLayout;horizontal=1;startSize=26;horizontalStack=0;resizeParent=1;resizeParentMax=0;resizeLast=0;collapsible=1;marginBottom=0;whiteSpace=wrap;html=1;" vertex="1" parent="1">
          <mxGeometry x="220" y="585" width="160" height="86" as="geometry" />
        </mxCell>
        <mxCell id="rXCyDEOSm-_-FBjUmAnm-10" value="- LuxuryLevel : String" style="text;strokeColor=none;fillColor=none;align=left;verticalAlign=top;spacingLeft=4;spacingRight=4;overflow=hidden;rotatable=0;points=[[0,0.5],[1,0.5]];portConstraint=eastwest;whiteSpace=wrap;html=1;" vertex="1" parent="rXCyDEOSm-_-FBjUmAnm-9">
          <mxGeometry y="26" width="160" height="26" as="geometry" />
        </mxCell>
        <mxCell id="rXCyDEOSm-_-FBjUmAnm-11" value="" style="line;strokeWidth=1;fillColor=none;align=left;verticalAlign=middle;spacingTop=-1;spacingLeft=3;spacingRight=3;rotatable=0;labelPosition=right;points=[];portConstraint=eastwest;strokeColor=inherit;" vertex="1" parent="rXCyDEOSm-_-FBjUmAnm-9">
          <mxGeometry y="52" width="160" height="8" as="geometry" />
        </mxCell>
        <mxCell id="rXCyDEOSm-_-FBjUmAnm-12" value="+ Cars ( ll : String )" style="text;strokeColor=none;fillColor=none;align=left;verticalAlign=top;spacingLeft=4;spacingRight=4;overflow=hidden;rotatable=0;points=[[0,0.5],[1,0.5]];portConstraint=eastwest;whiteSpace=wrap;html=1;" vertex="1" parent="rXCyDEOSm-_-FBjUmAnm-9">
          <mxGeometry y="60" width="160" height="26" as="geometry" />
        </mxCell>
        <mxCell id="rXCyDEOSm-_-FBjUmAnm-13" value="Vans&lt;span style=&quot;color: rgba(0, 0, 0, 0); font-family: monospace; font-size: 0px; font-weight: 400; text-align: start; text-wrap: nowrap;&quot;&gt;%3CmxGraphModel%3E%3Croot%3E%3CmxCell%20id%3D%220%22%2F%3E%3CmxCell%20id%3D%221%22%20parent%3D%220%22%2F%3E%3CmxCell%20id%3D%222%22%20value%3D%22RoadtripRental%22%20style%3D%22swimlane%3BfontStyle%3D1%3Balign%3Dcenter%3BverticalAlign%3Dtop%3BchildLayout%3DstackLayout%3Bhorizontal%3D1%3BstartSize%3D26%3BhorizontalStack%3D0%3BresizeParent%3D1%3BresizeParentMax%3D0%3BresizeLast%3D0%3Bcollapsible%3D1%3BmarginBottom%3D0%3BwhiteSpace%3Dwrap%3Bhtml%3D1%3B%22%20vertex%3D%221%22%20parent%3D%221%22%3E%3CmxGeometry%20x%3D%22330%22%20y%3D%22250%22%20width%3D%22160%22%20height%3D%2286%22%20as%3D%22geometry%22%2F%3E%3C%2FmxCell%3E%3CmxCell%20id%3D%223%22%20value%3D%22%2B%20field%3A%20type%22%20style%3D%22text%3BstrokeColor%3Dnone%3BfillColor%3Dnone%3Balign%3Dleft%3BverticalAlign%3Dtop%3BspacingLeft%3D4%3BspacingRight%3D4%3Boverflow%3Dhidden%3Brotatable%3D0%3Bpoints%3D%5B%5B0%2C0.5%5D%2C%5B1%2C0.5%5D%5D%3BportConstraint%3Deastwest%3BwhiteSpace%3Dwrap%3Bhtml%3D1%3B%22%20vertex%3D%221%22%20parent%3D%222%22%3E%3CmxGeometry%20y%3D%2226%22%20width%3D%22160%22%20height%3D%2226%22%20as%3D%22geometry%22%2F%3E%3C%2FmxCell%3E%3CmxCell%20id%3D%224%22%20value%3D%22%22%20style%3D%22line%3BstrokeWidth%3D1%3BfillColor%3Dnone%3Balign%3Dleft%3BverticalAlign%3Dmiddle%3BspacingTop%3D-1%3BspacingLeft%3D3%3BspacingRight%3D3%3Brotatable%3D0%3BlabelPosition%3Dright%3Bpoints%3D%5B%5D%3BportConstraint%3Deastwest%3BstrokeColor%3Dinherit%3B%22%20vertex%3D%221%22%20parent%3D%222%22%3E%3CmxGeometry%20y%3D%2252%22%20width%3D%22160%22%20height%3D%228%22%20as%3D%22geometry%22%2F%3E%3C%2FmxCell%3E%3CmxCell%20id%3D%225%22%20value%3D%22%2B%20method(type)%3A%20type%22%20style%3D%22text%3BstrokeColor%3Dnone%3BfillColor%3Dnone%3Balign%3Dleft%3BverticalAlign%3Dtop%3BspacingLeft%3D4%3BspacingRight%3D4%3Boverflow%3Dhidden%3Brotatable%3D0%3Bpoints%3D%5B%5B0%2C0.5%5D%2C%5B1%2C0.5%5D%5D%3BportConstraint%3Deastwest%3BwhiteSpace%3Dwrap%3Bhtml%3D1%3B%22%20vertex%3D%221%22%20parent%3D%222%22%3E%3CmxGeometry%20y%3D%2260%22%20width%3D%22160%22%20height%3D%2226%22%20as%3D%22geometry%22%2F%3E%3C%2FmxCell%3E%3C%2Froot%3E%3C%2FmxGraphModel%3E&lt;/span&gt;" style="swimlane;fontStyle=1;align=center;verticalAlign=top;childLayout=stackLayout;horizontal=1;startSize=26;horizontalStack=0;resizeParent=1;resizeParentMax=0;resizeLast=0;collapsible=1;marginBottom=0;whiteSpace=wrap;html=1;" vertex="1" parent="1">
          <mxGeometry x="414" y="585" width="160" height="86" as="geometry" />
        </mxCell>
        <mxCell id="rXCyDEOSm-_-FBjUmAnm-14" value="- LuxuryLevel : String" style="text;strokeColor=none;fillColor=none;align=left;verticalAlign=top;spacingLeft=4;spacingRight=4;overflow=hidden;rotatable=0;points=[[0,0.5],[1,0.5]];portConstraint=eastwest;whiteSpace=wrap;html=1;" vertex="1" parent="rXCyDEOSm-_-FBjUmAnm-13">
          <mxGeometry y="26" width="160" height="26" as="geometry" />
        </mxCell>
        <mxCell id="rXCyDEOSm-_-FBjUmAnm-15" value="" style="line;strokeWidth=1;fillColor=none;align=left;verticalAlign=middle;spacingTop=-1;spacingLeft=3;spacingRight=3;rotatable=0;labelPosition=right;points=[];portConstraint=eastwest;strokeColor=inherit;" vertex="1" parent="rXCyDEOSm-_-FBjUmAnm-13">
          <mxGeometry y="52" width="160" height="8" as="geometry" />
        </mxCell>
        <mxCell id="rXCyDEOSm-_-FBjUmAnm-16" value="+ Vans(ll : String)" style="text;strokeColor=none;fillColor=none;align=left;verticalAlign=top;spacingLeft=4;spacingRight=4;overflow=hidden;rotatable=0;points=[[0,0.5],[1,0.5]];portConstraint=eastwest;whiteSpace=wrap;html=1;" vertex="1" parent="rXCyDEOSm-_-FBjUmAnm-13">
          <mxGeometry y="60" width="160" height="26" as="geometry" />
        </mxCell>
        <mxCell id="rXCyDEOSm-_-FBjUmAnm-17" value="Motorbikes" style="swimlane;fontStyle=1;align=center;verticalAlign=top;childLayout=stackLayout;horizontal=1;startSize=26;horizontalStack=0;resizeParent=1;resizeParentMax=0;resizeLast=0;collapsible=1;marginBottom=0;whiteSpace=wrap;html=1;" vertex="1" parent="1">
          <mxGeometry x="640" y="480" width="160" height="60" as="geometry" />
        </mxCell>
        <mxCell id="rXCyDEOSm-_-FBjUmAnm-19" value="" style="line;strokeWidth=1;fillColor=none;align=left;verticalAlign=middle;spacingTop=-1;spacingLeft=3;spacingRight=3;rotatable=0;labelPosition=right;points=[];portConstraint=eastwest;strokeColor=inherit;" vertex="1" parent="rXCyDEOSm-_-FBjUmAnm-17">
          <mxGeometry y="26" width="160" height="8" as="geometry" />
        </mxCell>
        <mxCell id="rXCyDEOSm-_-FBjUmAnm-20" value="+ Motorbikes()" style="text;strokeColor=none;fillColor=none;align=left;verticalAlign=top;spacingLeft=4;spacingRight=4;overflow=hidden;rotatable=0;points=[[0,0.5],[1,0.5]];portConstraint=eastwest;whiteSpace=wrap;html=1;" vertex="1" parent="rXCyDEOSm-_-FBjUmAnm-17">
          <mxGeometry y="34" width="160" height="26" as="geometry" />
        </mxCell>
        <mxCell id="rXCyDEOSm-_-FBjUmAnm-21" value="Employee" style="swimlane;fontStyle=1;align=center;verticalAlign=top;childLayout=stackLayout;horizontal=1;startSize=26;horizontalStack=0;resizeParent=1;resizeParentMax=0;resizeLast=0;collapsible=1;marginBottom=0;whiteSpace=wrap;html=1;" vertex="1" parent="1">
          <mxGeometry x="620" y="50" width="160" height="130" as="geometry" />
        </mxCell>
        <mxCell id="rXCyDEOSm-_-FBjUmAnm-22" value="- name : String&lt;div&gt;- ID : int&lt;/div&gt;&lt;div&gt;- role : String&lt;/div&gt;" style="text;strokeColor=none;fillColor=none;align=left;verticalAlign=top;spacingLeft=4;spacingRight=4;overflow=hidden;rotatable=0;points=[[0,0.5],[1,0.5]];portConstraint=eastwest;whiteSpace=wrap;html=1;" vertex="1" parent="rXCyDEOSm-_-FBjUmAnm-21">
          <mxGeometry y="26" width="160" height="54" as="geometry" />
        </mxCell>
        <mxCell id="rXCyDEOSm-_-FBjUmAnm-23" value="" style="line;strokeWidth=1;fillColor=none;align=left;verticalAlign=middle;spacingTop=-1;spacingLeft=3;spacingRight=3;rotatable=0;labelPosition=right;points=[];portConstraint=eastwest;strokeColor=inherit;" vertex="1" parent="rXCyDEOSm-_-FBjUmAnm-21">
          <mxGeometry y="80" width="160" height="8" as="geometry" />
        </mxCell>
        <mxCell id="rXCyDEOSm-_-FBjUmAnm-24" value="+ Employee ( n : String, id : int, r : String)" style="text;strokeColor=none;fillColor=none;align=left;verticalAlign=top;spacingLeft=4;spacingRight=4;overflow=hidden;rotatable=0;points=[[0,0.5],[1,0.5]];portConstraint=eastwest;whiteSpace=wrap;html=1;" vertex="1" parent="rXCyDEOSm-_-FBjUmAnm-21">
          <mxGeometry y="88" width="160" height="42" as="geometry" />
        </mxCell>
        <mxCell id="rXCyDEOSm-_-FBjUmAnm-25" value="Costumer" style="swimlane;fontStyle=1;align=center;verticalAlign=top;childLayout=stackLayout;horizontal=1;startSize=26;horizontalStack=0;resizeParent=1;resizeParentMax=0;resizeLast=0;collapsible=1;marginBottom=0;whiteSpace=wrap;html=1;" vertex="1" parent="1">
          <mxGeometry x="40" y="50" width="160" height="230" as="geometry" />
        </mxCell>
        <mxCell id="rXCyDEOSm-_-FBjUmAnm-26" value="- PastReservations : Arraylist&amp;lt;Reservation&amp;gt;&amp;nbsp;&lt;div&gt;-&amp;nbsp; ActualReservations :&amp;nbsp;Arraylist&amp;lt;Reservation&amp;gt;&amp;nbsp;&lt;br&gt;&lt;div&gt;-&amp;nbsp; Name : String&lt;/div&gt;&lt;div&gt;- ID : int&lt;/div&gt;&lt;div&gt;- ContanctNum : int&lt;/div&gt;&lt;/div&gt;" style="text;strokeColor=none;fillColor=none;align=left;verticalAlign=top;spacingLeft=4;spacingRight=4;overflow=hidden;rotatable=0;points=[[0,0.5],[1,0.5]];portConstraint=eastwest;whiteSpace=wrap;html=1;" vertex="1" parent="rXCyDEOSm-_-FBjUmAnm-25">
          <mxGeometry y="26" width="160" height="114" as="geometry" />
        </mxCell>
        <mxCell id="rXCyDEOSm-_-FBjUmAnm-27" value="" style="line;strokeWidth=1;fillColor=none;align=left;verticalAlign=middle;spacingTop=-1;spacingLeft=3;spacingRight=3;rotatable=0;labelPosition=right;points=[];portConstraint=eastwest;strokeColor=inherit;" vertex="1" parent="rXCyDEOSm-_-FBjUmAnm-25">
          <mxGeometry y="140" width="160" height="8" as="geometry" />
        </mxCell>
        <mxCell id="rXCyDEOSm-_-FBjUmAnm-28" value="+ method(type): type&lt;div&gt;+ makeReservation(V : Vehicles, Date : int, returnDate : int) : Reservation&lt;/div&gt;" style="text;strokeColor=none;fillColor=none;align=left;verticalAlign=top;spacingLeft=4;spacingRight=4;overflow=hidden;rotatable=0;points=[[0,0.5],[1,0.5]];portConstraint=eastwest;whiteSpace=wrap;html=1;" vertex="1" parent="rXCyDEOSm-_-FBjUmAnm-25">
          <mxGeometry y="148" width="160" height="82" as="geometry" />
        </mxCell>
        <mxCell id="rXCyDEOSm-_-FBjUmAnm-34" value="Reservation" style="swimlane;fontStyle=1;align=center;verticalAlign=top;childLayout=stackLayout;horizontal=1;startSize=26;horizontalStack=0;resizeParent=1;resizeParentMax=0;resizeLast=0;collapsible=1;marginBottom=0;whiteSpace=wrap;html=1;" vertex="1" parent="1">
          <mxGeometry x="40" y="438" width="160" height="190" as="geometry" />
        </mxCell>
        <mxCell id="rXCyDEOSm-_-FBjUmAnm-35" value="- Cm : Costumer&lt;div&gt;- Vc : Vehicles&lt;/div&gt;&lt;div&gt;- ReservationID : int&lt;/div&gt;&lt;div&gt;- RentalPeriode : int[]&lt;/div&gt;&lt;div&gt;- RentalPrice : int&lt;/div&gt;" style="text;strokeColor=none;fillColor=none;align=left;verticalAlign=top;spacingLeft=4;spacingRight=4;overflow=hidden;rotatable=0;points=[[0,0.5],[1,0.5]];portConstraint=eastwest;whiteSpace=wrap;html=1;" vertex="1" parent="rXCyDEOSm-_-FBjUmAnm-34">
          <mxGeometry y="26" width="160" height="84" as="geometry" />
        </mxCell>
        <mxCell id="rXCyDEOSm-_-FBjUmAnm-36" value="" style="line;strokeWidth=1;fillColor=none;align=left;verticalAlign=middle;spacingTop=-1;spacingLeft=3;spacingRight=3;rotatable=0;labelPosition=right;points=[];portConstraint=eastwest;strokeColor=inherit;" vertex="1" parent="rXCyDEOSm-_-FBjUmAnm-34">
          <mxGeometry y="110" width="160" height="8" as="geometry" />
        </mxCell>
        <mxCell id="rXCyDEOSm-_-FBjUmAnm-37" value="+ Reservation( C : Costumer, V : Vehicles, rp : int [])&lt;div&gt;+ GetRentalPrice() : int&lt;/div&gt;" style="text;strokeColor=none;fillColor=none;align=left;verticalAlign=top;spacingLeft=4;spacingRight=4;overflow=hidden;rotatable=0;points=[[0,0.5],[1,0.5]];portConstraint=eastwest;whiteSpace=wrap;html=1;" vertex="1" parent="rXCyDEOSm-_-FBjUmAnm-34">
          <mxGeometry y="118" width="160" height="72" as="geometry" />
        </mxCell>
        <mxCell id="rXCyDEOSm-_-FBjUmAnm-42" value="Extends" style="endArrow=block;endSize=16;endFill=0;html=1;rounded=0;" edge="1" parent="1" target="rXCyDEOSm-_-FBjUmAnm-5">
          <mxGeometry width="160" relative="1" as="geometry">
            <mxPoint x="318" y="585" as="sourcePoint" />
            <mxPoint x="490" y="370" as="targetPoint" />
          </mxGeometry>
        </mxCell>
        <mxCell id="rXCyDEOSm-_-FBjUmAnm-45" value="1" style="edgeLabel;html=1;align=center;verticalAlign=middle;resizable=0;points=[];" vertex="1" connectable="0" parent="rXCyDEOSm-_-FBjUmAnm-42">
          <mxGeometry x="0.6338" relative="1" as="geometry">
            <mxPoint as="offset" />
          </mxGeometry>
        </mxCell>
        <mxCell id="rXCyDEOSm-_-FBjUmAnm-46" value="1" style="edgeLabel;html=1;align=center;verticalAlign=middle;resizable=0;points=[];" vertex="1" connectable="0" parent="rXCyDEOSm-_-FBjUmAnm-42">
          <mxGeometry x="-0.743" relative="1" as="geometry">
            <mxPoint as="offset" />
          </mxGeometry>
        </mxCell>
        <mxCell id="rXCyDEOSm-_-FBjUmAnm-43" value="Extends" style="endArrow=block;endSize=16;endFill=0;html=1;rounded=0;exitX=0.413;exitY=0.012;exitDx=0;exitDy=0;exitPerimeter=0;" edge="1" parent="1" source="rXCyDEOSm-_-FBjUmAnm-13" target="rXCyDEOSm-_-FBjUmAnm-5">
          <mxGeometry x="0.0053" width="160" relative="1" as="geometry">
            <mxPoint x="328" y="595" as="sourcePoint" />
            <mxPoint x="381" y="470" as="targetPoint" />
            <mxPoint as="offset" />
          </mxGeometry>
        </mxCell>
        <mxCell id="rXCyDEOSm-_-FBjUmAnm-47" value="1" style="edgeLabel;html=1;align=center;verticalAlign=middle;resizable=0;points=[];" vertex="1" connectable="0" parent="rXCyDEOSm-_-FBjUmAnm-43">
          <mxGeometry x="-0.6976" y="4" relative="1" as="geometry">
            <mxPoint as="offset" />
          </mxGeometry>
        </mxCell>
        <mxCell id="rXCyDEOSm-_-FBjUmAnm-48" value="1" style="edgeLabel;html=1;align=center;verticalAlign=middle;resizable=0;points=[];" vertex="1" connectable="0" parent="rXCyDEOSm-_-FBjUmAnm-43">
          <mxGeometry x="0.5746" y="4" relative="1" as="geometry">
            <mxPoint as="offset" />
          </mxGeometry>
        </mxCell>
        <mxCell id="rXCyDEOSm-_-FBjUmAnm-44" value="Extends" style="endArrow=block;endSize=16;endFill=0;html=1;rounded=0;" edge="1" parent="1" source="rXCyDEOSm-_-FBjUmAnm-17" target="rXCyDEOSm-_-FBjUmAnm-5">
          <mxGeometry x="0.0053" width="160" relative="1" as="geometry">
            <mxPoint x="490" y="596" as="sourcePoint" />
            <mxPoint x="453" y="470" as="targetPoint" />
            <mxPoint as="offset" />
          </mxGeometry>
        </mxCell>
        <mxCell id="rXCyDEOSm-_-FBjUmAnm-49" value="1" style="edgeLabel;html=1;align=center;verticalAlign=middle;resizable=0;points=[];" vertex="1" connectable="0" parent="rXCyDEOSm-_-FBjUmAnm-44">
          <mxGeometry x="0.5818" y="-1" relative="1" as="geometry">
            <mxPoint as="offset" />
          </mxGeometry>
        </mxCell>
        <mxCell id="rXCyDEOSm-_-FBjUmAnm-50" value="1" style="edgeLabel;html=1;align=center;verticalAlign=middle;resizable=0;points=[];" vertex="1" connectable="0" parent="rXCyDEOSm-_-FBjUmAnm-44">
          <mxGeometry x="-0.8314" relative="1" as="geometry">
            <mxPoint as="offset" />
          </mxGeometry>
        </mxCell>
        <mxCell id="rXCyDEOSm-_-FBjUmAnm-52" value="" style="endArrow=none;html=1;edgeStyle=orthogonalEdgeStyle;rounded=0;" edge="1" parent="1" source="rXCyDEOSm-_-FBjUmAnm-34" target="rXCyDEOSm-_-FBjUmAnm-25">
          <mxGeometry relative="1" as="geometry">
            <mxPoint x="330" y="330" as="sourcePoint" />
            <mxPoint x="490" y="330" as="targetPoint" />
          </mxGeometry>
        </mxCell>
        <mxCell id="rXCyDEOSm-_-FBjUmAnm-71" value="1" style="edgeLabel;html=1;align=center;verticalAlign=middle;resizable=0;points=[];" vertex="1" connectable="0" parent="rXCyDEOSm-_-FBjUmAnm-52">
          <mxGeometry x="0.8228" relative="1" as="geometry">
            <mxPoint as="offset" />
          </mxGeometry>
        </mxCell>
        <mxCell id="rXCyDEOSm-_-FBjUmAnm-72" value="n" style="edgeLabel;html=1;align=center;verticalAlign=middle;resizable=0;points=[];" vertex="1" connectable="0" parent="rXCyDEOSm-_-FBjUmAnm-52">
          <mxGeometry x="-0.8004" y="-1" relative="1" as="geometry">
            <mxPoint as="offset" />
          </mxGeometry>
        </mxCell>
        <mxCell id="rXCyDEOSm-_-FBjUmAnm-55" value="Use" style="endArrow=open;endSize=12;dashed=1;html=1;rounded=0;" edge="1" parent="1" source="rXCyDEOSm-_-FBjUmAnm-25" target="rXCyDEOSm-_-FBjUmAnm-5">
          <mxGeometry width="160" relative="1" as="geometry">
            <mxPoint x="280" y="230" as="sourcePoint" />
            <mxPoint x="490" y="340" as="targetPoint" />
          </mxGeometry>
        </mxCell>
        <mxCell id="rXCyDEOSm-_-FBjUmAnm-56" value="1" style="edgeLabel;html=1;align=center;verticalAlign=middle;resizable=0;points=[];" vertex="1" connectable="0" parent="rXCyDEOSm-_-FBjUmAnm-55">
          <mxGeometry x="-0.6777" y="-1" relative="1" as="geometry">
            <mxPoint as="offset" />
          </mxGeometry>
        </mxCell>
        <mxCell id="rXCyDEOSm-_-FBjUmAnm-57" value="n" style="edgeLabel;html=1;align=center;verticalAlign=middle;resizable=0;points=[];" vertex="1" connectable="0" parent="rXCyDEOSm-_-FBjUmAnm-55">
          <mxGeometry x="0.684" y="-2" relative="1" as="geometry">
            <mxPoint as="offset" />
          </mxGeometry>
        </mxCell>
        <mxCell id="rXCyDEOSm-_-FBjUmAnm-58" value="" style="endArrow=none;html=1;edgeStyle=orthogonalEdgeStyle;rounded=0;" edge="1" parent="1" source="rXCyDEOSm-_-FBjUmAnm-34" target="rXCyDEOSm-_-FBjUmAnm-5">
          <mxGeometry relative="1" as="geometry">
            <mxPoint x="130" y="448" as="sourcePoint" />
            <mxPoint x="130" y="380" as="targetPoint" />
          </mxGeometry>
        </mxCell>
        <mxCell id="rXCyDEOSm-_-FBjUmAnm-73" value="1" style="edgeLabel;html=1;align=center;verticalAlign=middle;resizable=0;points=[];" vertex="1" connectable="0" parent="rXCyDEOSm-_-FBjUmAnm-58">
          <mxGeometry x="-0.894" y="-1" relative="1" as="geometry">
            <mxPoint as="offset" />
          </mxGeometry>
        </mxCell>
        <mxCell id="rXCyDEOSm-_-FBjUmAnm-74" value="1" style="edgeLabel;html=1;align=center;verticalAlign=middle;resizable=0;points=[];" vertex="1" connectable="0" parent="rXCyDEOSm-_-FBjUmAnm-58">
          <mxGeometry x="0.9119" y="3" relative="1" as="geometry">
            <mxPoint as="offset" />
          </mxGeometry>
        </mxCell>
        <mxCell id="rXCyDEOSm-_-FBjUmAnm-60" value="" style="endArrow=diamondThin;endFill=1;endSize=24;html=1;rounded=0;" edge="1" parent="1" source="rXCyDEOSm-_-FBjUmAnm-21" target="rXCyDEOSm-_-FBjUmAnm-1">
          <mxGeometry width="160" relative="1" as="geometry">
            <mxPoint x="330" y="320" as="sourcePoint" />
            <mxPoint x="640" y="160" as="targetPoint" />
          </mxGeometry>
        </mxCell>
        <mxCell id="rXCyDEOSm-_-FBjUmAnm-62" value="1" style="edgeLabel;html=1;align=center;verticalAlign=middle;resizable=0;points=[];" vertex="1" connectable="0" parent="rXCyDEOSm-_-FBjUmAnm-60">
          <mxGeometry x="0.3211" y="1" relative="1" as="geometry">
            <mxPoint as="offset" />
          </mxGeometry>
        </mxCell>
        <mxCell id="rXCyDEOSm-_-FBjUmAnm-63" value="n" style="edgeLabel;html=1;align=center;verticalAlign=middle;resizable=0;points=[];" vertex="1" connectable="0" parent="rXCyDEOSm-_-FBjUmAnm-60">
          <mxGeometry x="-0.7005" y="-1" relative="1" as="geometry">
            <mxPoint as="offset" />
          </mxGeometry>
        </mxCell>
        <mxCell id="rXCyDEOSm-_-FBjUmAnm-64" value="" style="endArrow=diamondThin;endFill=1;endSize=24;html=1;rounded=0;" edge="1" parent="1" source="rXCyDEOSm-_-FBjUmAnm-5" target="rXCyDEOSm-_-FBjUmAnm-1">
          <mxGeometry width="160" relative="1" as="geometry">
            <mxPoint x="630" y="128" as="sourcePoint" />
            <mxPoint x="530" y="132" as="targetPoint" />
            <Array as="points">
              <mxPoint x="300" y="210" />
              <mxPoint x="290" y="160" />
            </Array>
          </mxGeometry>
        </mxCell>
        <mxCell id="rXCyDEOSm-_-FBjUmAnm-65" value="1" style="edgeLabel;html=1;align=center;verticalAlign=middle;resizable=0;points=[];" vertex="1" connectable="0" parent="rXCyDEOSm-_-FBjUmAnm-64">
          <mxGeometry x="0.3211" y="1" relative="1" as="geometry">
            <mxPoint as="offset" />
          </mxGeometry>
        </mxCell>
        <mxCell id="rXCyDEOSm-_-FBjUmAnm-66" value="n" style="edgeLabel;html=1;align=center;verticalAlign=middle;resizable=0;points=[];" vertex="1" connectable="0" parent="rXCyDEOSm-_-FBjUmAnm-64">
          <mxGeometry x="-0.7005" y="-1" relative="1" as="geometry">
            <mxPoint as="offset" />
          </mxGeometry>
        </mxCell>
        <mxCell id="rXCyDEOSm-_-FBjUmAnm-67" value="" style="endArrow=diamondThin;endFill=1;endSize=24;html=1;rounded=0;" edge="1" parent="1" source="rXCyDEOSm-_-FBjUmAnm-34" target="rXCyDEOSm-_-FBjUmAnm-1">
          <mxGeometry width="160" relative="1" as="geometry">
            <mxPoint x="360" y="270" as="sourcePoint" />
            <mxPoint x="370" y="154" as="targetPoint" />
            <Array as="points">
              <mxPoint x="290" y="80" />
            </Array>
          </mxGeometry>
        </mxCell>
        <mxCell id="rXCyDEOSm-_-FBjUmAnm-68" value="1" style="edgeLabel;html=1;align=center;verticalAlign=middle;resizable=0;points=[];" vertex="1" connectable="0" parent="rXCyDEOSm-_-FBjUmAnm-67">
          <mxGeometry x="0.3211" y="1" relative="1" as="geometry">
            <mxPoint as="offset" />
          </mxGeometry>
        </mxCell>
        <mxCell id="rXCyDEOSm-_-FBjUmAnm-69" value="n" style="edgeLabel;html=1;align=center;verticalAlign=middle;resizable=0;points=[];" vertex="1" connectable="0" parent="rXCyDEOSm-_-FBjUmAnm-67">
          <mxGeometry x="-0.7005" y="-1" relative="1" as="geometry">
            <mxPoint as="offset" />
          </mxGeometry>
        </mxCell>
      </root>
    </mxGraphModel>
  </diagram>
</mxfile>
